<?xml version="1.0" encoding="utf-8"?>
<!-- Generator: Adobe Illustrator 18.1.1, SVG Export Plug-In . SVG Version: 6.00 Build 0)  -->
<svg version="1.1" baseProfile="tiny" id="Layer_1" xmlns="http://www.w3.org/2000/svg" xmlns:xlink="http://www.w3.org/1999/xlink"
	 x="0px" y="0px" viewBox="0 0 283.46 226.77" xml:space="preserve">
<path fill="#EF4136" d="M225.655,35.742l-53.018,155.286h-7.546L114.515,46.167L64.156,191.028h-7.763L3.375,35.742h7.984
	L60.387,180.16l50.576-144.418h7.321l50.359,144.64l49.47-144.64H225.655z"/>
<path d="M111.751,35.742h59.896c16.121,0,30.429,3.329,42.926,9.983c12.497,6.655,22.187,15.862,29.061,27.619
	c6.878,11.757,10.317,25.103,10.317,40.042s-3.439,28.285-10.317,40.042c-6.874,11.757-16.564,20.964-29.061,27.617
	c-12.497,6.657-26.804,9.983-42.926,9.983h-59.896V35.742z M171.205,184.15c15.088,0,28.285-3.028,39.6-9.094
	c11.315-6.061,20.075-14.456,26.285-25.18c6.215-10.719,9.32-22.882,9.32-36.49s-3.105-25.771-9.32-36.494
	c-6.21-10.719-14.971-19.112-26.285-25.177c-11.315-6.061-24.512-9.094-39.6-9.094h-51.907v141.53H171.205z"/>
<path fill="#EF4136" d="M267.664,118.487c-1.48-1.404-2.221-3.067-2.221-4.992c0-2.069,0.7-3.805,2.108-5.213
	c1.404-1.404,3.141-2.108,5.213-2.108c1.923,0,3.624,0.704,5.105,2.108c1.476,1.408,2.216,3.071,2.216,4.992
	c0,1.923-0.74,3.626-2.216,5.102c-1.48,1.48-3.182,2.218-5.105,2.218C270.842,120.595,269.14,119.895,267.664,118.487z"/>
</svg>
