<svg height="482pt" viewBox="0 -8 482 482" width="482pt" xmlns="http://www.w3.org/2000/svg"><path d="m482 165.109375v-66.738281c0-22.085938-16.914062-39.625-38.121094-39.625h-100.703125c-5.457031-13.414063-12.683593-26.039063-21.484375-37.539063l-13.984375-18.753906c-1.128906-1.523437-2.902343-2.4335938-4.800781-2.453125-1.882812-.0117188-3.664062.871094-4.800781 2.375l-13.984375 18.84375c-8.796875 11.5-16.019532 24.117188-21.480469 37.527344h-224.523437c-21.207032 0-38.117188 17.539062-38.117188 39.625v327.121094c0 22.085937 16.910156 40.253906 38.117188 40.253906h405.761718c21.207032 0 38.121094-18.167969 38.121094-40.253906v-260.226563c0-.027344 0-.050781 0-.078125s0-.050781 0-.078125zm-38.121094-94.363281c14.589844 0 26.121094 12.15625 26.121094 27.625v60.375h-112v-29.800782c-.070312-19.839843-3.523438-39.523437-10.214844-58.199218zm-121.300781 273.925781.015625.816406c-.03125 19.289063-15.050781 34.257813-19.71875 36.257813h-.214844c-4.601562-2-19.363281-16.886719-19.363281-36.207032 0-2.800781.195313-8.792968.457031-12.792968h38.480469c.105469 2 .21875 6.136718.34375 11.925781zm-51.578125-23.925781v-16h64v16zm-23-51h-39.824219c.882813-29 8.824219-51.683594 39.824219-68.347656zm110-67.722656c14 7.753906 23.601562 16.667968 29.960938 27.65625 6.117187 10.570312 9.386718 23.488281 9.980468 40.3125h-39.941406zm-64.347656-173.832032 9.21875-12.246094 9.363281 12.246094c21.785156 29.085938 33.625 64.414063 33.765625 100.753906v163.800782h-86v-126.726563c0-.273437.0625-.550781.0625-.832031 0-.285156-.0625-.558594-.0625-.832031v-35.410157c.101562-36.328124 11.902344-71.65625 33.652344-100.753906zm-255.535156 42.554688h219.914062c-6.628906 18.6875-10.023438 38.371094-10.03125 58.199218v29.800782h-236v-60.375c0-15.46875 11.527344-27.625 26.117188-27.625zm405.761718 383h-405.761718c-14.589844 0-26.117188-12.785156-26.117188-28.253906v-254.746094h236v17.191406c-19 9.164062-32.382812 20.636719-40.578125 35-7.777344 13.625-11.367187 30.488281-11.367187 53.058594.007812 1.558594.648437 3.042968 1.773437 4.121094 1.148437 1.089843 2.679687 1.675781 4.261719 1.628906h45.910156v17.101562c.074219 3.320313 2.816406 5.953125 6.140625 5.898438h4.859375v21.59375c0 3.3125 2.699219 6.40625 6.015625 6.40625h6.714844c-.347657 6-.433594 12.53125-.433594 12.636718 0 24.839844 19.066406 46.132813 29.386719 48.199219.386718.09375.78125.148438 1.175781.164063h1.804687c.402344-.050782.796876-.140625 1.179688-.265625 10.449219-2.089844 29.75-23.429688 29.75-48.226563 0-.046875 0-.128906 0-.171875l-.015625-.644531c-.109375-5.070312-.214844-8.691406-.332031-11.691406h6.632812c3.414063-.179688 6.09375-2.988282 6.121094-6.40625v-21.59375h4.675781c3.359375.070312 6.164063-2.546875 6.324219-5.898438v-16.851562h45.964844c3.328125.007812 6.042968-2.671875 6.082031-6 0-43.664063-15.046875-69.246094-52.046875-87.5v-17.75h112v254.746094c0 15.46875-11.53125 28.253906-26.121094 28.253906zm0 0"/><path d="m124.679688 144.101562c15.242187 0 27.640624-12.875 27.640624-28.699218 0-15.824219-12.398437-28.703125-27.640624-28.703125-15.238282 0-27.640626 12.875-27.640626 28.703125 0 15.824218 12.398438 28.699218 27.640626 28.699218zm0-45.402343c8.625 0 15.640624 7.492187 15.640624 16.703125 0 9.207031-7.015624 16.699218-15.640624 16.699218s-15.640626-7.492187-15.640626-16.699218c0-9.210938 7.019532-16.707032 15.640626-16.707032zm0 0"/><path d="m195.015625 144.101562c15.238281 0 27.636719-12.875 27.636719-28.699218 0-15.824219-12.398438-28.703125-27.636719-28.703125-15.242187 0-27.644531 12.875-27.644531 28.703125 0 15.824218 12.402344 28.699218 27.644531 28.699218zm0-45.402343c8.621094 0 15.636719 7.492187 15.636719 16.703125 0 9.207031-7.015625 16.699218-15.636719 16.699218-8.625 0-15.644531-7.492187-15.644531-16.699218 0-9.210938 7.019531-16.707032 15.644531-16.707032zm0 0"/><path d="m54.347656 144.101562c15.242188 0 27.640625-12.875 27.640625-28.699218 0-15.824219-12.398437-28.703125-27.640625-28.703125-15.238281 0-27.640625 12.875-27.640625 28.703125 0 15.824218 12.398438 28.699218 27.640625 28.699218zm0-45.402343c8.625 0 15.640625 7.492187 15.640625 16.703125 0 9.207031-7.015625 16.699218-15.640625 16.699218s-15.640625-7.492187-15.640625-16.699218c0-9.210938 7.019531-16.707032 15.640625-16.707032zm0 0"/><path d="m302.945312 186.746094h.003907c16.824219-.066406 30.410156-13.757813 30.339843-30.582032-.074218-16.824218-13.773437-30.402343-30.597656-30.324218-16.824218.078125-30.394531 13.78125-30.3125 30.605468.011719 8.078126 3.246094 15.820313 8.980469 21.507813 5.738281 5.6875 13.507813 8.851563 21.585937 8.792969zm0-48.832032c10.253907 0 18.566407 8.3125 18.566407 18.566407 0 10.253906-8.3125 18.566406-18.566407 18.566406-10.253906 0-18.566406-8.3125-18.566406-18.566406.011719-10.25 8.316406-18.554688 18.566406-18.566407zm0 0"/></svg>