<?xml version="1.0" encoding="utf-8"?>
<!-- Generator: Adobe Illustrator 18.1.1, SVG Export Plug-In . SVG Version: 6.00 Build 0)  -->
<svg version="1.1" id="Layer_1" xmlns="http://www.w3.org/2000/svg" xmlns:xlink="http://www.w3.org/1999/xlink" x="0px" y="0px"
	 viewBox="0 0 283.5 226.8" enable-background="new 0 0 283.5 226.8" xml:space="preserve">
<rect x="175.9" y="17.6" fill="#E26560" stroke="#000000" stroke-miterlimit="10" width="72.3" height="22.7"/>
<path fill="#010101" d="M248.4,159.4c0,1.8,1.4,3,3,3c1.6,0,3-1.4,3-3v-145c0-1.8-1.4-3-3-3h-220c-1.6,0-3,1.4-3,3v198.2
	c0,1.8,1.4,3,3,3h220c1.8,0,3-1.4,3-3V174c0-1.8-1.4-3-3-3c-1.6,0-3,1.4-3,3v35.5H34.6v-163h213.8V159.4z M169.8,40.3H34.6V17.6
	h135.2V40.3z M175.9,40.3V17.6h72.3v22.7H175.9z"/>
<circle fill="#010101" cx="212.3" cy="29" r="3.4"/>
<circle fill="#010101" cx="192.4" cy="29" r="3.4"/>
<circle fill="#010101" cx="232" cy="29" r="3.4"/>
<path fill="#010101" d="M99.6,108.6c1.2-0.2,2.3-1.1,2.7-2.1l8.4-27.9c0.5-1.6-0.4-3.4-2.1-3.9c-1.6-0.5-3.4,0.5-3.9,2.1l-6.4,21.1
	l-6.4-10.7c-0.5-0.9-1.6-1.4-2.7-1.4s-2.1,0.5-2.7,1.4l-6.4,10.7l-6.4-21.1c-0.2-1.2-1.4-2.1-2.7-2.1c-0.4,0-0.5,0-0.9,0.2
	c-0.7,0.2-1.4,0.7-1.8,1.4c-0.4,0.7-0.5,1.6-0.2,2.3l8.2,27.9c0.4,1.2,1.4,2,2.7,2.1c1.2,0.2,2.5-0.4,3-1.4l7.3-12.3l7.3,12.3
	C97.3,108.2,98.4,108.8,99.6,108.6z"/>
<path fill="#010101" d="M127.7,108.6c1.2,0.2,2.5-0.4,3-1.4l7.3-12.3l7.3,12.3c0.5,1.1,1.8,1.6,3,1.4s2.3-1.1,2.7-2.1l8.4-27.9
	c0.5-1.6-0.4-3.4-2.1-3.9c-1.6-0.5-3.4,0.5-3.9,2.1l-6.4,21.1l-6.4-10.7c-0.5-0.9-1.6-1.4-2.7-1.4s-2.1,0.5-2.7,1.4l-6.4,10.7
	l-6.4-21.1c-0.4-1.2-1.6-2.1-3-2.1c-0.4,0-0.5,0-0.9,0.2c-0.7,0.2-1.4,0.7-1.8,1.4s-0.5,1.6-0.2,2.3l8.4,27.9
	C125.4,107.7,126.4,108.4,127.7,108.6z"/>
<path fill="#010101" d="M194.2,107.2c0.5,1.1,1.8,1.6,3,1.4c1.2-0.2,2.3-1.1,2.5-2.1l8.4-27.9c0.2-0.7,0.2-1.6-0.2-2.3
	c-0.4-0.7-1.1-1.2-1.8-1.4c-1.6-0.5-3.4,0.5-3.9,2.1l-6.4,21.1l-6.4-10.7c-0.5-0.9-1.6-1.4-2.7-1.4s-2.1,0.5-2.7,1.4l-6.4,10.7
	L171.2,77c-0.5-1.6-2.3-2.5-3.9-2.1c-0.7,0.2-1.4,0.7-1.8,1.4c-0.4,0.7-0.5,1.6-0.2,2.3l8.4,27.9c0.4,1.2,1.4,2,2.7,2.1
	c1.2,0.2,2.5-0.4,3-1.4l7.3-12.3L194.2,107.2z"/>
<path fill="#010101" d="M90.2,126.7H71c-1.8,0-3,1.4-3,3v19.4c0,1.8,1.4,3,3,3h19.4c1.8,0,3-1.4,3-3v-19.4
	C93.4,128,92,126.7,90.2,126.7z M87.2,145.9H74v-13.2h13.2V145.9z"/>
<path fill="#010101" d="M90.2,160.5H71c-1.8,0-3,1.4-3,3v19.4c0,1.8,1.4,3,3,3h19.4c1.8,0,3-1.4,3-3v-19.4
	C93.4,161.9,92,160.5,90.2,160.5z M87.2,179.9H74v-13.2h13.2V179.9z"/>
<path fill="#010101" d="M205,136.3h-14.6c-1.8,0-3,1.4-3,3c0,1.6,1.4,3,3,3H205c1.8,0,3-1.4,3-3C208,137.7,206.8,136.3,205,136.3z"
	/>
<path fill="#010101" d="M176,136.3h-71.3c-1.8,0-3,1.4-3,3c0,1.6,1.4,3,3,3H176c1.8,0,3-1.4,3-3C179.1,137.7,177.8,136.3,176,136.3z
	"/>
<path fill="#010101" d="M205,170.1h-14.6c-1.8,0-3,1.4-3,3c0,1.6,1.4,3,3,3H205c1.8,0,3-1.4,3-3C208,171.5,206.8,170.1,205,170.1z"
	/>
<path fill="#010101" d="M176,170.1h-71.3c-1.8,0-3,1.4-3,3c0,1.6,1.4,3,3,3H176c1.8,0,3-1.4,3-3C179.1,171.5,177.8,170.1,176,170.1z
	"/>
<rect x="74" y="132.8" fill="#E26560" stroke="#000000" stroke-miterlimit="10" width="13.2" height="13.2"/>
<rect x="74" y="166.7" fill="#E26560" width="13.2" height="13.2"/>
</svg>
