<?xml version="1.0" encoding="utf-8"?>
<!-- Generator: Adobe Illustrator 18.1.1, SVG Export Plug-In . SVG Version: 6.00 Build 0)  -->
<svg version="1.1" id="Layer_1" xmlns="http://www.w3.org/2000/svg" xmlns:xlink="http://www.w3.org/1999/xlink" x="0px" y="0px"
	 viewBox="0 0 283.5 226.8" enable-background="new 0 0 283.5 226.8" xml:space="preserve">
<rect x="106.9" y="56" fill="#E26560" stroke="#000000" stroke-miterlimit="10" width="69.7" height="72.7"/>
<path fill="#010101" d="M103.9,134.9h76.2c1.8,0,3-1.4,3-3V53c0-1.8-1.4-3-3-3H162v-2.1c0-11-9.1-20.1-20.1-20.1
	c-11,0-20.1,9.1-20.1,20.1v2h-17.9c-1.8,0-3,1.4-3,3v78.9C100.9,133.5,102.1,134.9,103.9,134.9z M128.2,47.8
	c0-7.6,6.2-13.9,13.9-13.9s13.9,6.2,13.9,13.9v2h-27.7V47.8z M106.9,56h14.9v6.6c0,1.8,1.4,3,3,3c1.6,0,3-1.4,3-3V56h27.7v6.6
	c0,1.8,1.4,3,3,3c1.6,0,3-1.4,3-3V56h14.9v72.7h-69.7V56z"/>
<path fill="#010101" d="M37.1,183.8h79.8v28.8H82c-1.8,0-3,1.4-3,3c0,1.6,1.4,3,3,3h120c1.8,0,3-1.4,3-3c0-1.6-1.4-3-3-3h-34.8
	v-28.8h79.8c4.4,0,8.2-3.6,8.2-8.2V16.5c0-4.4-3.6-8.2-8.2-8.2H37.1c-4.4,0-8.2,3.6-8.2,8.2v159.1C28.9,180,32.6,183.8,37.1,183.8z
	 M161.1,212.6h-38.2v-28.8h38.2V212.6z M35.1,16.5c0-1.1,0.9-2,2-2h209.9c1.1,0,2,0.9,2,2v159.1c0,1.1-0.9,2-2,2H37.1
	c-1.1,0-2-0.9-2-2C35.1,175.6,35.1,16.5,35.1,16.5z"/>
<path fill="#010101" d="M47,154.3h190c1.8,0,3-1.4,3-3c0-1.6-1.4-3-3-3H47c-1.8,0-3,1.4-3,3C44,152.8,45.2,154.3,47,154.3z"/>
</svg>
