<?xml version="1.0" encoding="utf-8"?>
<!-- Generator: Adobe Illustrator 18.1.1, SVG Export Plug-In . SVG Version: 6.00 Build 0)  -->
<svg version="1.1" id="Layer_1" xmlns="http://www.w3.org/2000/svg" xmlns:xlink="http://www.w3.org/1999/xlink" x="0px" y="0px"
	 viewBox="0 0 283.5 226.8" enable-background="new 0 0 283.5 226.8" xml:space="preserve">
<rect x="185.4" y="6.8" fill="#E26560" stroke="#000000" stroke-miterlimit="10" width="51.9" height="51.9"/>
<g>
	<path fill="#010101" d="M41,64.7h199.4c1.8,0,3-1.4,3-3V3.7c0-1.8-1.4-3-3-3H41c-1.8,0-3,1.4-3,3v57.9C37.9,63.4,39.4,64.7,41,64.7
		z M185.4,6.8h51.9v51.9h-51.9V6.8z M44.2,6.8h135.2v51.9H44.2V6.8z"/>
	<path fill="#010101" d="M99.1,178.4h63.4c1.8,0,3-1.4,3-3c0-1.6-1.4-3-3-3H99.1c-1.8,0-3,1.4-3,3C96.1,177,97.3,178.4,99.1,178.4z"
		/>
	<path fill="#010101" d="M226,152.8H99.1c-1.8,0-3,1.4-3,3c0,1.6,1.4,3,3,3H226c1.8,0,3-1.4,3-3C229,154.3,227.6,152.8,226,152.8z"
		/>
	<path fill="#010101" d="M162.5,114.1H99.1c-1.8,0-3,1.4-3,3s1.4,3,3,3h63.4c1.8,0,3-1.4,3-3S164.1,114.1,162.5,114.1z"/>
	<path fill="#010101" d="M226,94.9H99.1c-1.8,0-3,1.4-3,3s1.4,3,3,3H226c1.8,0,3-1.4,3-3S227.6,94.9,226,94.9z"/>
	<path fill="#010101" d="M41,139.7h199.4c1.8,0,3-1.4,3-3V78.6c0-1.8-1.4-3-3-3H41c-1.8,0-3,1.4-3,3v57.9
		C37.9,138.3,39.4,139.7,41,139.7z M44.2,81.8h193.2v51.9H44.2V81.8z"/>
	<path fill="#010101" d="M220.1,37l0.2-0.4c1.2-2.1,2-4.8,2-7.3c0-3.7-1.4-7.5-4.3-10.1c-2.7-2.7-6.2-4.3-10.1-4.3
		c-3.7,0-7.5,1.4-10.1,4.3c-2.7,2.7-4.1,6.2-4.1,10.1s1.4,7.5,4.1,10.1s6.2,4.3,10.1,4.3c2.7,0,5.2-0.7,7.3-2l0.4-0.2l8,8
		c1.2,1.2,3.2,1.2,4.4,0c1.2-1.2,1.2-3.2,0-4.4L220.1,37z M213.9,35c-1.6,1.6-3.6,2.3-5.7,2.3s-4.3-0.9-5.7-2.3
		c-3.2-3.2-3.2-8.4,0-11.4c1.6-1.6,3.6-2.3,5.7-2.3s4.3,0.9,5.7,2.3c1.6,1.6,2.3,3.6,2.3,5.7S215.3,33.6,213.9,35z"/>
	<path fill="#010101" d="M84.5,148h-29c-1.8,0-3,1.4-3,3v29c0,1.8,1.4,3,3,3h29c1.8,0,3-1.4,3-3v-29C87.5,149.5,86.3,148,84.5,148z
		 M81.5,177H58.6v-22.7h22.7V177H81.5z"/>
	<path fill="#010101" d="M95.9,218.8c0,1.8,1.4,3,3,3h63.4c1.8,0,3-1.4,3-3c0-1.6-1.4-3-3-3H99.1C97.3,215.8,95.9,217,95.9,218.8z"
		/>
	<path fill="#010101" d="M226,196.4H99.1c-1.8,0-3,1.4-3,3c0,1.6,1.4,3,3,3H226c1.8,0,3-1.4,3-3C229,197.8,227.6,196.4,226,196.4z"
		/>
	<path fill="#010101" d="M84.5,191.6h-29c-1.8,0-3,1.4-3,3v29c0,1.8,1.4,3,3,3h29c1.8,0,3-1.4,3-3v-29
		C87.5,192.8,86.3,191.6,84.5,191.6z M81.5,220.5H58.6v-22.7h22.7v22.7H81.5z"/>
	<path fill="#010101" d="M84.5,89.9h-29c-1.8,0-3,1.4-3,3v29c0,1.8,1.4,3,3,3h29c1.8,0,3-1.4,3-3V93.1
		C87.5,91.3,86.3,89.9,84.5,89.9z M81.5,119.1H58.6V96.1h22.7v22.9H81.5z"/>
</g>
<rect x="58.6" y="96.1" fill="#E26560" stroke="#000000" stroke-miterlimit="10" width="22.7" height="22.9"/>
<rect x="58.6" y="154.1" fill="#E26560" stroke="#000000" stroke-miterlimit="10" width="22.7" height="22.9"/>
<rect x="58.6" y="197.6" fill="#E26560" stroke="#000000" stroke-miterlimit="10" width="22.7" height="22.9"/>
</svg>
