<?xml version="1.0" encoding="utf-8"?>
<!-- Generator: Adobe Illustrator 18.1.1, SVG Export Plug-In . SVG Version: 6.00 Build 0)  -->
<svg version="1.1" id="Layer_1" xmlns="http://www.w3.org/2000/svg" xmlns:xlink="http://www.w3.org/1999/xlink" x="0px" y="0px"
	 viewBox="0 0 283.5 226.8" enable-background="new 0 0 283.5 226.8" xml:space="preserve">
<path fill="#010101" d="M246.9,15.8h-33.8V3c0-1.8-1.4-3-3-3H73.8c-1.8,0-3,1.4-3,3v12.8H37.1c-4.4,0-8.2,3.6-8.2,8.2v159.1
	c0,4.4,3.6,8.2,8.2,8.2h79.8V220H82c-1.8,0-3,1.4-3,3c0,1.6,1.4,3,3,3h104c1.8,0,3-1.4,3-3c0-1.6-1.4-3-3-3h-18.8v-28.8h15.5
	c1.8,0,3-1.4,3-3c0-1.6-1.4-3-3-3H36.9c-1.1,0-2-0.9-2-2V24c0-1.1,0.9-2,2-2h33.8v133.5H47c-1.8,0-3,1.4-3,3c0,1.6,1.2,3.2,3,3.2
	h135.8c1.8,0,3-1.4,3-3c0-1.6-1.4-3-3-3h-29.1v-30.2c0-1.8-1.4-3-3-3H93.2c-1.8,0-3,1.4-3,3v30.2H77V6.4h130.1V40c0,1.8,1.4,3,3,3
	c1.6,0,3-1.4,3-3V22.2h33.8c1.1,0,2,0.9,2,2v158.9c0,1.1-0.9,2-2,2h-9.4c-1.8,0-3,1.4-3,3c0,1.6,1.4,3,3,3h9.4
	c4.4,0,8.2-3.6,8.2-8.2V24C255.1,19.4,251.4,15.8,246.9,15.8z M122.9,191.2h38.2V220h-38.2V191.2z M96.2,128.3h51.2v27H96.2V128.3z"
	/>
<path fill="#010101" d="M194.2,85.7L194.2,85.7V86c0,0.2,0,0.2,0,0.4v123.9c0,8.9,7.1,16,16,16s16-7.1,16-16V86.4c0-0.2,0-0.2,0-0.4
	v-0.4v-0.2c0-0.2,0-0.2-0.2-0.4v-0.2l-12.8-32c-0.5-1.2-1.6-2-2.8-2s-2.3,0.7-2.8,2l-12.8,32v0.2v0.2L194.2,85.7L194.2,85.7z
	 M210.2,62.6l8.4,20.6H202L210.2,62.6z M200.2,89.4h19.5v104.7h-19.5V89.4z M200.2,200.3h19.5v10c0,5.3-4.4,9.8-9.8,9.8
	c-5.3,0-9.8-4.4-9.8-9.8V200.3z"/>
<path fill="#010101" d="M93.2,51h97.6c1.8,0,3-1.4,3-3V22.4c0-1.8-1.4-3-3-3H93.2c-1.8,0-3,1.4-3,3V48C90.2,49.6,91.4,51,93.2,51z
	 M96.2,25.6h91.3V45H96.2V25.6z"/>
<path fill="#010101" d="M193.8,62.4c0-1.8-1.4-3-3-3H93.2c-1.8,0-3,1.4-3,3c0,1.6,1.4,3,3,3h97.6C192.4,65.6,193.8,64.2,193.8,62.4z
	"/>
<path fill="#010101" d="M150.6,78.7H93.2c-1.8,0-3,1.4-3,3s1.4,3,3,3h57.4c1.8,0,3-1.4,3-3S152.2,78.7,150.6,78.7z"/>
<path fill="#010101" d="M183.3,78.7H165c-1.8,0-3,1.4-3,3s1.4,3,3,3h18.3c1.8,0,3-1.4,3-3S185.1,78.7,183.3,78.7z"/>
<path fill="#010101" d="M150.6,93.1H93.2c-1.8,0-3,1.4-3,3s1.4,3,3,3h57.4c1.8,0,3-1.4,3-3S152.2,93.1,150.6,93.1z"/>
<path fill="#010101" d="M182.6,93.1H165c-1.8,0-3,1.4-3,3s1.4,3,3,3h17.6c1.8,0,3-1.4,3-3S184.4,93.1,182.6,93.1z"/>
<path fill="#010101" d="M150.6,107.7H93.2c-1.8,0-3,1.4-3,3c0,1.6,1.4,3,3,3h57.4c1.8,0,3-1.4,3-3
	C153.6,109.1,152.2,107.7,150.6,107.7z"/>
<path fill="#010101" d="M182.6,107.7H165c-1.8,0-3,1.4-3,3c0,1.6,1.4,3,3,3h17.6c1.8,0,3-1.4,3-3
	C185.6,109.1,184.4,107.7,182.6,107.7z"/>
<rect x="96.2" y="25.6" fill="#E26560" width="91.3" height="19.4"/>
<rect x="96.2" y="128.3" fill="#E26560" width="51.2" height="27"/>
</svg>
