<?xml version="1.0" encoding="utf-8"?>
<!-- Generator: Adobe Illustrator 18.1.1, SVG Export Plug-In . SVG Version: 6.00 Build 0)  -->
<svg version="1.1" baseProfile="tiny" id="Layer_1" xmlns="http://www.w3.org/2000/svg" xmlns:xlink="http://www.w3.org/1999/xlink"
	 x="0px" y="0px" viewBox="0 0 153.07 28.35" xml:space="preserve">
<g>
	<path d="M35.256,3.004l-8.311,24.242h-0.693L18.114,3.975L9.976,27.246H9.283L0.972,3.004h0.762l7.931,23.134l8.104-23.134h0.693
		l8.138,23.203l7.931-23.203H35.256z"/>
	<path d="M53.368,18.277h-15.93c0,1.616,0.358,3.065,1.074,4.346c0.715,1.282,1.702,2.28,2.961,2.996s2.672,1.073,4.242,1.073
		c1.224,0,2.372-0.236,3.446-0.709c1.074-0.473,1.957-1.16,2.649-2.061l0.485,0.485c-0.785,0.947-1.754,1.674-2.908,2.182
		c-1.155,0.508-2.379,0.762-3.671,0.762c-1.709,0-3.237-0.386-4.588-1.16c-1.351-0.774-2.413-1.853-3.186-3.238
		c-0.774-1.385-1.16-2.944-1.16-4.675c0-1.731,0.358-3.284,1.074-4.658c0.715-1.373,1.702-2.446,2.961-3.221
		c1.258-0.773,2.672-1.16,4.243-1.16c1.546,0,2.955,0.38,4.225,1.143c1.27,0.762,2.269,1.813,2.996,3.152
		c0.727,1.339,1.091,2.863,1.091,4.571V18.277z M41.282,10.9c-1.132,0.67-2.038,1.593-2.718,2.77
		c-0.681,1.177-1.057,2.493-1.126,3.948H52.71c-0.069-1.454-0.45-2.77-1.143-3.948c-0.693-1.177-1.605-2.1-2.736-2.77
		c-1.132-0.669-2.389-1.004-3.774-1.004C43.671,9.896,42.413,10.231,41.282,10.9z"/>
	<path d="M72.328,10.398c1.327,0.774,2.372,1.847,3.134,3.221c0.762,1.374,1.143,2.927,1.143,4.658c0,1.732-0.381,3.29-1.143,4.675
		c-0.762,1.385-1.807,2.465-3.134,3.238c-1.328,0.774-2.8,1.16-4.416,1.16c-1.871,0-3.521-0.502-4.952-1.506
		c-1.432-1.004-2.448-2.36-3.047-4.069v5.472H59.22V1.55h0.693v13.229c0.6-1.685,1.621-3.03,3.064-4.034
		c1.443-1.005,3.088-1.506,4.935-1.506C69.528,9.238,71,9.625,72.328,10.398z M71.999,25.619c1.223-0.716,2.181-1.714,2.874-2.996
		s1.039-2.73,1.039-4.346c0-1.616-0.347-3.065-1.039-4.346c-0.693-1.282-1.651-2.274-2.874-2.978
		c-1.225-0.704-2.586-1.056-4.086-1.056c-1.501,0-2.863,0.352-4.086,1.056c-1.225,0.705-2.182,1.697-2.875,2.978
		c-0.693,1.281-1.039,2.73-1.039,4.346c0,1.616,0.346,3.065,1.039,4.346c0.693,1.282,1.65,2.28,2.875,2.996
		c1.223,0.716,2.585,1.073,4.086,1.073C69.413,26.692,70.775,26.335,71.999,25.619z"/>
	<path fill="#EF4136" d="M81.072,17.757h8.658v0.658h-8.658V17.757z"/>
	<path d="M96.586,3.004h9.177c2.517,0,4.739,0.52,6.667,1.558c1.928,1.039,3.428,2.482,4.502,4.329
		c1.074,1.847,1.611,3.925,1.611,6.234s-0.537,4.387-1.611,6.233c-1.074,1.847-2.574,3.29-4.502,4.329
		c-1.928,1.039-4.15,1.558-6.667,1.558h-9.177V3.004z M105.694,26.588c2.424,0,4.554-0.49,6.39-1.472
		c1.835-0.981,3.255-2.343,4.259-4.086c1.005-1.743,1.507-3.711,1.507-5.904s-0.502-4.161-1.507-5.905
		c-1.004-1.743-2.424-3.105-4.259-4.086c-1.835-0.981-3.965-1.472-6.39-1.472h-8.415v22.926H105.694z"/>
	<path fill="#EF4136" d="M124.273,4.113c-0.173-0.185-0.26-0.392-0.26-0.624c0-0.254,0.087-0.467,0.26-0.64
		c0.173-0.173,0.386-0.259,0.64-0.259c0.23,0,0.438,0.086,0.624,0.259c0.185,0.173,0.277,0.387,0.277,0.64
		c0,0.231-0.092,0.439-0.277,0.624c-0.185,0.185-0.393,0.277-0.624,0.277C124.659,4.39,124.446,4.298,124.273,4.113z"/>
	<rect x="124.567" y="9.342" width="0.693" height="17.904"/>
	<path d="M135.13,3.109c-0.624,0.67-0.935,1.64-0.935,2.909v3.324h6.06V10h-6.06v17.246h-0.693V10h-3.464V9.342h3.464V5.845
		c0-1.339,0.38-2.407,1.143-3.204c0.762-0.796,1.823-1.194,3.186-1.194c0.669,0,1.321,0.109,1.957,0.328
		c0.635,0.22,1.148,0.537,1.541,0.953l-0.485,0.485c-0.785-0.738-1.778-1.108-2.978-1.108C136.665,2.104,135.753,2.439,135.13,3.109
		z"/>
	<path d="M145.9,3.109c-0.624,0.67-0.935,1.64-0.935,2.909v3.324h6.06V10h-6.06v17.246h-0.693V10h-3.464V9.342h3.464V5.845
		c0-1.339,0.38-2.407,1.143-3.204c0.762-0.796,1.823-1.194,3.186-1.194c0.669,0,1.321,0.109,1.957,0.328
		c0.635,0.22,1.148,0.537,1.541,0.953l-0.485,0.485c-0.785-0.738-1.778-1.108-2.978-1.108C147.435,2.104,146.523,2.439,145.9,3.109z
		"/>
</g>
</svg>
