<?xml version="1.0" encoding="utf-8"?>
<!-- Generator: Adobe Illustrator 18.1.1, SVG Export Plug-In . SVG Version: 6.00 Build 0)  -->
<svg version="1.1" baseProfile="tiny" id="Layer_1" xmlns="http://www.w3.org/2000/svg" xmlns:xlink="http://www.w3.org/1999/xlink"
	 x="0px" y="0px" viewBox="0 0 283.46 283.46" xml:space="preserve">
<path d="M250.023,67.908L191.841,238.32h-8.281L128.058,79.349L72.793,238.32h-8.519L6.092,67.908h8.762l53.804,158.486
	L124.16,67.908h8.034l55.265,158.729l54.289-158.729H250.023z"/>
<path d="M124.798,67.908h65.73c17.692,0,33.393,3.653,47.107,10.956c13.715,7.303,24.349,17.407,31.892,30.309
	c7.548,12.902,11.322,27.548,11.322,43.942s-3.774,31.04-11.322,43.942c-7.543,12.902-18.177,23.006-31.892,30.307
	c-13.715,7.306-29.415,10.956-47.107,10.956h-65.73V67.908z M190.043,230.772c16.558,0,31.04-3.323,43.457-9.98
	c12.417-6.652,22.031-15.864,28.846-27.632c6.82-11.763,10.228-25.111,10.228-40.044c0-14.933-3.408-28.281-10.228-40.049
	c-6.815-11.763-16.429-20.973-28.846-27.63c-12.417-6.652-26.899-9.98-43.457-9.98h-56.963v155.316H190.043z"/>
<path fill="#EF4136" d="M239.954,61.831c-1.625-1.54-2.437-3.366-2.437-5.478c0-2.271,0.768-4.175,2.313-5.721
	c1.54-1.54,3.447-2.313,5.721-2.313c2.11,0,3.977,0.773,5.602,2.313c1.62,1.545,2.432,3.37,2.432,5.478
	c0,2.11-0.812,3.98-2.432,5.599c-1.625,1.625-3.492,2.434-5.602,2.434S241.573,63.376,239.954,61.831z"/>
</svg>
