<?xml version="1.0" encoding="utf-8"?>
<!-- Generator: Adobe Illustrator 18.1.1, SVG Export Plug-In . SVG Version: 6.00 Build 0)  -->
<svg version="1.1" id="Layer_1" xmlns="http://www.w3.org/2000/svg" xmlns:xlink="http://www.w3.org/1999/xlink" x="0px" y="0px"
	 viewBox="0 0 283.5 226.8" enable-background="new 0 0 283.5 226.8" xml:space="preserve">
<ellipse fill="#E26560" cx="124" cy="131.2" rx="28.5" ry="28.1"/>
<path fill="#010101" d="M121.8,133.3c1.2,1.2,3.2,1.2,4.4,0l65-65c0,0,0.2-0.2,15.5-15.5l0.2-0.2h0.2l23.1-3.6
	c0.7-0.2,1.2-0.4,1.8-0.9l22-22.4c0.9-0.9,1.2-2.3,0.5-3.6c-0.5-1.2-2-1.8-3.2-1.6l-20.1,3l3.2-20.1c0.2-1.2-0.5-2.7-1.6-3.2
	c-1.2-0.5-2.7-0.4-3.6,0.5L207,23.3c-0.5,0.5-0.7,1.1-0.9,1.8l-3.6,23.3l-13.3,13.3l-0.4-0.4c-17.6-16.4-40.5-25.4-64.7-25.4
	c-25.4,0-49.2,10-67.2,27.9C38.8,81.8,28.9,105.6,28.9,131s10,49.2,27.9,67.2s41.8,27.9,67.2,27.9s49.2-10,67.2-27.9
	S219,156.4,219,131c0-20.3-6.2-39.5-18.1-55.8c-0.9-1.2-3-1.6-4.3-0.7c-1.4,1.1-1.8,3-0.7,4.3C207,94,212.8,112,212.8,131
	c0,49.1-39.8,88.9-88.9,88.9S35.1,180,35.1,131S74.9,42.1,124,42.1c22.4,0,43.9,8.4,60.2,23.5l0.4,0.4l-17.2,17.2L167,83
	c-11.7-10.5-27-16.4-43-16.4c-35.5,0-64.3,29-64.3,64.3s28.8,64.5,64.3,64.5s64.3-29,64.3-64.3c0-11.9-3.2-23.5-9.4-33.4
	c-0.9-1.4-2.8-2-4.3-1.1c-0.7,0.4-1.2,1.1-1.4,2c-0.2,0.9,0,1.6,0.4,2.3c5.5,9.1,8.5,19.5,8.5,30.2c0,32.2-26.1,58.3-58.3,58.3
	S65.7,163.1,65.7,131S91.8,72.9,124,72.9c14.2,0,27.9,5.2,38.6,14.6l0.4,0.4L145.6,105l-0.5-0.2c-6-5-13.3-7.5-21.1-7.5
	c-18.7,0-33.8,15.1-33.8,33.8s15.1,33.8,33.8,33.8s33.8-15.1,33.8-33.8c0-3.4-0.5-6.6-1.4-9.8c-0.5-1.6-2.3-2.5-3.9-2.1
	c-0.7,0.2-1.4,0.7-1.8,1.4c-0.4,0.7-0.5,1.6-0.2,2.3c0.7,2.5,1.2,5.3,1.2,8c0,15.3-12.4,27.5-27.5,27.5c-15.3,0-27.5-12.4-27.5-27.5
	c0-15.1,12.4-27.5,27.5-27.5c6,0,11.9,2,16.7,5.7l0.5,0.4l-19.5,19.4c-0.5,0.5-0.9,1.4-0.9,2.1S121.1,132.8,121.8,133.3z
	 M229.3,30.2l13.7-2.1l-15.1,15.1h-0.2l-13.7,2.1L229.3,30.2L229.3,30.2z M211.9,27L227,11.9l-2.1,13.9l-15.1,15.1L211.9,27z"/>
</svg>
